<?xml version="1.0" standalone="no"?>
<!DOCTYPE svg PUBLIC "-//W3C//DTD SVG 20010904//EN"
 "http://www.w3.org/TR/2001/REC-SVG-20010904/DTD/svg10.dtd">
<svg version="1.0" xmlns="http://www.w3.org/2000/svg"
 width="204.000000pt" height="204.000000pt" viewBox="0 0 204.000000 204.000000"
 preserveAspectRatio="xMidYMid meet">
<metadata>
Created by potrace 1.14, written by Peter Selinger 2001-2017
</metadata>
<g transform="translate(0.000000,204.000000) scale(0.100000,-0.100000)"
fill="#000000" stroke="none">
<path d="M1220 1651 c-227 -52 -377 -224 -397 -456 -18 -224 151 -455 373
-505 255 -59 512 87 584 332 39 130 32 235 -25 353 -62 129 -175 225 -310 265
-51 15 -180 21 -225 11z m180 -27 c25 -3 78 -21 118 -40 163 -78 268 -251 261
-428 -9 -206 -131 -369 -326 -435 -211 -71 -456 35 -554 239 -54 112 -65 185
-41 300 18 91 57 165 122 230 65 65 138 106 229 130 64 16 97 17 191 4z"/>
<path d="M1204 1581 c-111 -33 -191 -90 -246 -175 -134 -208 -79 -470 128
-602 56 -36 171 -72 219 -69 132 9 231 50 311 130 138 138 165 345 69 518 -30
52 -120 139 -174 166 -90 46 -214 59 -307 32z"/>
<path d="M67 492 c-25 -10 -57 -62 -57 -92 0 -71 80 -123 146 -95 32 13 43 33
28 48 -4 3 -16 0 -28 -8 -30 -21 -53 -18 -81 10 -31 31 -32 59 -1 90 25 24 65
26 92 4 7 -6 15 -4 23 5 26 31 -66 60 -122 38z"/>
<path d="M249 472 c-90 -80 18 -220 124 -163 32 17 50 52 50 98 0 28 -7 42
-31 65 -44 39 -100 39 -143 0z m117 -28 c30 -29 27 -67 -8 -96 -26 -23 -50
-23 -79 0 -45 38 -16 122 43 122 10 0 30 -11 44 -26z"/>
<path d="M462 398 c-1 -91 0 -98 18 -98 17 0 20 7 20 40 l0 40 45 0 c33 0 45
4 45 15 0 11 -12 15 -45 15 -41 0 -45 2 -45 25 0 26 4 27 77 28 15 0 21 6 20
19 -1 16 -9 18 -67 16 l-66 -2 -2 -98z"/>
<path d="M630 399 c0 -92 1 -99 20 -99 17 0 20 7 20 40 l0 40 43 0 c32 0 44 4
44 15 0 11 -12 15 -44 15 -42 0 -44 1 -41 27 3 24 7 27 48 27 33 1 45 5 45 16
0 12 -15 15 -67 17 l-68 1 0 -99z"/>
<path d="M800 398 l0 -98 73 0 c59 0 74 3 74 15 0 11 -13 15 -53 15 -32 0 -54
5 -56 13 -10 26 4 37 48 37 36 0 44 3 44 18 0 15 -8 18 -45 17 -41 -1 -45 1
-45 22 0 24 2 25 63 25 29 0 37 3 37 18 0 16 -8 18 -70 17 l-70 -1 0 -98z"/>
<path d="M982 399 l-1 -99 74 0 c60 0 75 3 75 15 0 12 -13 15 -55 15 -52 0
-55 1 -55 25 0 23 4 25 44 25 25 0 47 4 50 8 10 16 -10 28 -49 27 -34 0 -40 3
-43 23 -3 19 1 22 30 23 65 2 73 4 73 19 0 12 -15 15 -70 17 l-71 1 -2 -99z"/>
<path d="M1262 493 c-7 -3 -18 -16 -23 -30 -13 -36 9 -66 60 -82 24 -7 41 -18
41 -27 0 -23 -29 -28 -65 -11 -31 15 -34 15 -40 0 -12 -34 65 -59 112 -36 57
27 39 96 -28 110 -39 8 -54 27 -33 44 12 10 22 10 45 2 25 -10 31 -9 36 4 3 8
0 19 -8 24 -15 9 -76 11 -97 2z"/>
<path d="M1420 401 c0 -95 1 -101 21 -101 15 0 20 6 19 23 -5 54 -2 57 45 57
l45 0 0 -40 c0 -33 3 -40 20 -40 18 0 20 6 18 100 -1 90 -3 100 -19 100 -16 0
-19 -8 -19 -45 l0 -45 -45 0 c-40 0 -45 3 -46 23 -3 55 -5 62 -21 65 -16 3
-18 -7 -18 -97z"/>
<path d="M1658 472 c-53 -48 -40 -133 27 -165 18 -9 39 -15 46 -14 99 15 138
117 69 180 -42 38 -98 37 -142 -1z m110 -19 c35 -30 38 -68 8 -97 -30 -31 -55
-33 -87 -8 -45 37 -16 122 41 122 10 0 27 -8 38 -17z"/>
<path d="M1878 494 c-2 -5 -5 -51 -6 -101 -2 -87 -1 -93 18 -93 15 0 20 7 20
28 0 25 3 27 40 28 51 1 80 26 80 70 0 25 -19 61 -33 64 -36 8 -116 10 -119 4z
m107 -69 c0 -27 -3 -30 -37 -33 -38 -3 -38 -3 -38 33 0 36 0 36 38 33 34 -3
37 -6 37 -33z"/>
</g>
</svg>
